# xmcd
#
# Track frame offsets: 
#        150
#        17304
#        38249
#        59751
#        76598
#        96922
#        116968
#        138997
#        168283
#        186841
#        205320
#        222902
#
# Disc length: 3213 seconds
#
# Revision: 6
# Processed by: cddbd v1.5.2PL0 Copyright (c) Steve Scherf et al.
# Submitted via: ExactAudioCopyFreeDBPlugin 1.0
#
DISCID=a40c8b0c
DTITLE=Al Green - I Can't Stop
DYEAR=2003
DGENRE=Soul
TTITLE0=I Can't Stop
TTITLE1=Play to Win
TTITLE2=Rainin' in My Heart
TTITLE3=I've Been Waitin' on You
TTITLE4=You
TTITLE5=Not Tonight
TTITLE6=Million to One
TTITLE7=My Problem is You
TTITLE8=I'd Still Choose You
TTITLE9=I've Been Thinkin' Bout You
TTITLE10=I'd Write a Letter
TTITLE11=Too Many
EXTD=
EXTT0=
EXTT1=
EXTT2=
EXTT3=
EXTT4=
EXTT5=
EXTT6=
EXTT7=
EXTT8=
EXTT9=
EXTT10=
EXTT11=
PLAYORDER=
